{
	"patcher" : 	{
		"fileversion" : 1,
		"appversion" : 		{
			"major" : 8,
			"minor" : 1,
			"revision" : 4,
			"architecture" : "x64",
			"modernui" : 1
		}
,
		"classnamespace" : "box",
		"rect" : [ 41.0, 84.0, 1205.0, 705.0 ],
		"bglocked" : 0,
		"openinpresentation" : 0,
		"default_fontsize" : 12.0,
		"default_fontface" : 0,
		"default_fontname" : "Arial",
		"gridonopen" : 1,
		"gridsize" : [ 15.0, 15.0 ],
		"gridsnaponopen" : 1,
		"objectsnaponopen" : 1,
		"statusbarvisible" : 2,
		"toolbarvisible" : 1,
		"lefttoolbarpinned" : 0,
		"toptoolbarpinned" : 0,
		"righttoolbarpinned" : 0,
		"bottomtoolbarpinned" : 0,
		"toolbars_unpinned_last_save" : 0,
		"tallnewobj" : 0,
		"boxanimatetime" : 200,
		"enablehscroll" : 1,
		"enablevscroll" : 1,
		"devicewidth" : 0.0,
		"description" : "",
		"digest" : "",
		"tags" : "",
		"style" : "",
		"subpatcher_template" : "",
		"assistshowspatchername" : 0,
		"boxes" : [ 			{
				"box" : 				{
					"id" : "obj-76",
					"maxclass" : "newobj",
					"numinlets" : 2,
					"numoutlets" : 2,
					"outlettype" : [ "", "" ],
					"patching_rect" : [ 793.0, 477.0, 73.0, 22.0 ],
					"text" : "zl.group"
				}

			}
, 			{
				"box" : 				{
					"id" : "obj-75",
					"maxclass" : "newobj",
					"numinlets" : 1,
					"numoutlets" : 1,
					"outlettype" : [ "" ],
					"patching_rect" : [ 793.0, 513.0, 75.0, 22.0 ],
					"text" : "prepend text"
				}

			}
, 			{
				"box" : 				{
					"id" : "obj-73",
					"maxclass" : "newobj",
					"numinlets" : 2,
					"numoutlets" : 1,
					"outlettype" : [ "int" ],
					"patching_rect" : [ 644.0, 236.0, 29.5, 22.0 ],
					"text" : "+ 1"
				}

			}
, 			{
				"box" : 				{
					"id" : "obj-60",
					"maxclass" : "newobj",
					"numinlets" : 2,
					"numoutlets" : 2,
					"outlettype" : [ "", "" ],
					"patching_rect" : [ 793.0, 437.0, 55.0, 22.0 ],
					"text" : "route set"
				}

			}
, 			{
				"box" : 				{
					"id" : "obj-56",
					"maxclass" : "newobj",
					"numinlets" : 1,
					"numoutlets" : 3,
					"outlettype" : [ "", "query", "dump" ],
					"patching_rect" : [ 793.0, 366.0, 85.0, 22.0 ],
					"text" : "t l query dump"
				}

			}
, 			{
				"box" : 				{
					"id" : "obj-55",
					"maxclass" : "newobj",
					"numinlets" : 1,
					"numoutlets" : 1,
					"outlettype" : [ "" ],
					"patching_rect" : [ 793.0, 335.0, 80.0, 22.0 ],
					"text" : "prepend read"
				}

			}
, 			{
				"box" : 				{
					"id" : "obj-52",
					"maxclass" : "newobj",
					"numinlets" : 1,
					"numoutlets" : 3,
					"outlettype" : [ "", "bang", "int" ],
					"patching_rect" : [ 793.0, 404.0, 73.0, 22.0 ],
					"text" : "text"
				}

			}
, 			{
				"box" : 				{
					"id" : "obj-49",
					"maxclass" : "newobj",
					"numinlets" : 2,
					"numoutlets" : 2,
					"outlettype" : [ "", "" ],
					"patching_rect" : [ 793.0, 302.0, 71.0, 22.0 ],
					"text" : "route bibtex"
				}

			}
, 			{
				"box" : 				{
					"id" : "obj-47",
					"maxclass" : "newobj",
					"numinlets" : 1,
					"numoutlets" : 1,
					"outlettype" : [ "text" ],
					"patching_rect" : [ 709.0, 331.0, 35.0, 22.0 ],
					"text" : "t text"
				}

			}
, 			{
				"box" : 				{
					"id" : "obj-44",
					"maxclass" : "newobj",
					"numinlets" : 2,
					"numoutlets" : 2,
					"outlettype" : [ "", "" ],
					"patching_rect" : [ 644.0, 302.0, 84.0, 22.0 ],
					"text" : "routepass text"
				}

			}
, 			{
				"box" : 				{
					"id" : "obj-41",
					"maxclass" : "message",
					"numinlets" : 2,
					"numoutlets" : 1,
					"outlettype" : [ "" ],
					"patching_rect" : [ 705.0, 56.0, 159.0, 22.0 ],
					"text" : "3 bibtex What_is_Life.bibtex"
				}

			}
, 			{
				"box" : 				{
					"id" : "obj-39",
					"maxclass" : "newobj",
					"numinlets" : 1,
					"numoutlets" : 4,
					"outlettype" : [ "", "", "", "" ],
					"patching_rect" : [ 644.0, 268.0, 57.0, 22.0 ],
					"saved_object_attributes" : 					{
						"embed" : 0,
						"precision" : 6
					}
,
					"text" : "coll living"
				}

			}
, 			{
				"box" : 				{
					"id" : "obj-38",
					"maxclass" : "button",
					"numinlets" : 1,
					"numoutlets" : 1,
					"outlettype" : [ "bang" ],
					"parameter_enable" : 0,
					"patching_rect" : [ 644.0, 145.0, 51.0, 51.0 ]
				}

			}
, 			{
				"box" : 				{
					"id" : "obj-32",
					"maxclass" : "slider",
					"numinlets" : 1,
					"numoutlets" : 1,
					"outlettype" : [ "" ],
					"parameter_enable" : 0,
					"patching_rect" : [ 544.0, 47.0, 20.0, 140.0 ]
				}

			}
, 			{
				"box" : 				{
					"id" : "obj-29",
					"maxclass" : "message",
					"numinlets" : 2,
					"numoutlets" : 1,
					"outlettype" : [ "" ],
					"patching_rect" : [ 544.0, 207.0, 47.0, 22.0 ],
					"text" : "size $1"
				}

			}
, 			{
				"box" : 				{
					"id" : "obj-25",
					"maxclass" : "newobj",
					"numinlets" : 1,
					"numoutlets" : 1,
					"outlettype" : [ "bang" ],
					"patching_rect" : [ 480.5, 556.0, 58.0, 22.0 ],
					"text" : "loadbang"
				}

			}
, 			{
				"box" : 				{
					"fontname" : "Arial",
					"fontsize" : 13.0,
					"id" : "obj-22",
					"maxclass" : "newobj",
					"numinlets" : 1,
					"numoutlets" : 1,
					"outlettype" : [ "" ],
					"patching_rect" : [ 480.5, 591.0, 47.0, 23.0 ],
					"text" : "fontlist"
				}

			}
, 			{
				"box" : 				{
					"fontname" : "Arial",
					"fontsize" : 13.0,
					"id" : "obj-82",
					"maxclass" : "newobj",
					"numinlets" : 1,
					"numoutlets" : 1,
					"outlettype" : [ "" ],
					"patching_rect" : [ 544.5, 648.0, 64.0, 23.0 ],
					"text" : "tosymbol"
				}

			}
, 			{
				"box" : 				{
					"fontname" : "Arial",
					"fontsize" : 13.0,
					"id" : "obj-83",
					"maxclass" : "newobj",
					"numinlets" : 2,
					"numoutlets" : 1,
					"outlettype" : [ "" ],
					"patching_rect" : [ 465.5, 675.0, 98.0, 23.0 ],
					"text" : "pak font Times"
				}

			}
, 			{
				"box" : 				{
					"fontface" : 0,
					"fontname" : "Arial",
					"fontsize" : 13.0,
					"id" : "obj-84",
					"items" : [ "Ableton Sans Light", ",", "Ableton Sans Medium", ",", "Ableton Sans Bold", ",", "Adobe Devanagari", ",", "Adobe Devanagari Italic", ",", "Adobe Devanagari Bold", ",", "Adobe Devanagari Bold Italic", ",", "Agency FB", ",", "Agency FB Bold", ",", "Algerian", ",", "Arial", ",", "Arial Narrow", ",", "Arial Italic", ",", "Arial Narrow Italic", ",", "Arial Bold", ",", "Arial Narrow Bold", ",", "Arial Bold Italic", ",", "Arial Narrow Bold Italic", ",", "Arial Black", ",", "Arial Rounded MT Bold", ",", "Atlanta Book", ",", "Atlanta Book Oblique", ",", "Atlanta Demi", ",", "Atlanta Demi Oblique", ",", "Bahnschrift Light", ",", "Bahnschrift Light Condensed", ",", "Bahnschrift Light SemiCondensed", ",", "Bahnschrift SemiLight", ",", "Bahnschrift SemiLight Condensed", ",", "Bahnschrift SemiLight SemiCondensed", ",", "Bahnschrift", ",", "Bahnschrift Condensed", ",", "Bahnschrift SemiCondensed", ",", "Bahnschrift SemiBold", ",", "Bahnschrift SemiBold Condensed", ",", "Bahnschrift SemiBold SemiCondensed", ",", "Bahnschrift Bold", ",", "Bahnschrift Bold Condensed", ",", "Bahnschrift Bold SemiCondensed", ",", "Baskerville Old Face", ",", "Bauhaus 93", ",", "Belgium", ",", "Bell MT", ",", "Bell MT Italic", ",", "Bell MT Bold", ",", "Berlin Sans FB", ",", "Berlin Sans FB Demi Bold", ",", "Berlin Sans FB Bold", ",", "Bermuda Script", ",", "Bernard MT Condensed", ",", "Blackadder ITC", ",", "Bodoni MT", ",", "Bodoni MT Condensed", ",", "Bodoni MT Italic", ",", "Bodoni MT Condensed Italic", ",", "Bodoni MT Bold", ",", "Bodoni MT Condensed Bold", ",", "Bodoni MT Bold Italic", ",", "Bodoni MT Condensed Bold Italic", ",", "Bodoni MT Black", ",", "Bodoni MT Black Italic", ",", "Bodoni MT Poster Compressed Light", ",", "Book Antiqua", ",", "Book Antiqua Italic", ",", "Book Antiqua Bold", ",", "Book Antiqua Bold Italic", ",", "Bookman Old Style", ",", "Bookman Old Style Italic", ",", "Bookman Old Style Bold", ",", "Bookman Old Style Bold Italic", ",", "Bookshelf Symbol 7", ",", "BR-OCRB", ",", "Bradley Hand ITC", ",", "Britannic Bold", ",", "Broadway", ",", "Brush Script MT Italic", ",", "Brussels Light", ",", "Brussels Condensed Light", ",", "Brussels Light Italic", ",", "Brussels Condensed Light Italic", ",", "Brussels Demi", ",", "Brussels Condensed Demi", ",", "Brussels Demi Italic", ",", "Brussels Condensed Demi Italic", ",", "Calibri Light", ",", "Calibri Light Italic", ",", "Calibri", ",", "Calibri Italic", ",", "Calibri Bold", ",", "Calibri Bold Italic", ",", "Californian FB", ",", "Californian FB Italic", ",", "Californian FB Bold", ",", "Calisto MT", ",", "Calisto MT Italic", ",", "Calisto MT Bold", ",", "Calisto MT Bold Italic", ",", "Cambria", ",", "Cambria Italic", ",", "Cambria Bold", ",", "Cambria Bold Italic", ",", "Cambria Math", ",", "Candara Light", ",", "Candara Light Italic", ",", "Candara", ",", "Candara Italic", ",", "Candara Bold", ",", "Candara Bold Italic", ",", "Castellar", ",", "Centaur", ",", "Century", ",", "Century Gothic", ",", "Century Gothic Italic", ",", "Century Gothic Bold", ",", "Century Gothic Bold Italic", ",", "Century Schoolbook", ",", "Century Schoolbook Italic", ",", "Century Schoolbook Bold", ",", "Century Schoolbook Bold Italic", ",", "Chiller", ",", "Colonna MT", ",", "Comfortaa Light", ",", "Comfortaa", ",", "Comfortaa Bold", ",", "Comic Sans MS", ",", "Comic Sans MS Italic", ",", "Comic Sans MS Bold", ",", "Comic Sans MS Bold Italic", ",", "Connecticut Italic", ",", "Consolas", ",", "Consolas Italic", ",", "Consolas Bold", ",", "Consolas Bold Italic", ",", "Constantia", ",", "Constantia Italic", ",", "Constantia Bold", ",", "Constantia Bold Italic", ",", "Cooper Black", ",", "Copperplate Gothic Light", ",", "Copperplate Gothic Bold", ",", "Corbel Light", ",", "Corbel Light Italic", ",", "Corbel", ",", "Corbel Italic", ",", "Corbel Bold", ",", "Corbel Bold Italic", ",", "Courier New", ",", "Courier New Italic", ",", "Courier New Bold", ",", "Courier New Bold Italic", ",", "Curlz MT", ",", "Dubai Light", ",", "Dubai", ",", "Dubai Medium", ",", "Dubai Bold", ",", "Ebrima", ",", "Ebrima Bold", ",", "Edwardian Script ITC", ",", "Elephant", ",", "Elephant Italic", ",", "Engravers MT", ",", "Eras ITC Light", ",", "Eras ITC Medium", ",", "Eras ITC Demi", ",", "Eras ITC Bold", ",", "Felix Titling", ",", "Footlight MT Light", ",", "Forte", ",", "Franklin Gothic Medium", ",", "Franklin Gothic Cond Medium", ",", "Franklin Gothic Medium Italic", ",", "Franklin Gothic Demi", ",", "Franklin Gothic Cond Demi", ",", "Franklin Gothic Demi Italic", ",", "Franklin Gothic Heavy", ",", "Franklin Gothic Heavy Italic", ",", "Franklin Gothic Book", ",", "Franklin Gothic Book Italic", ",", "Freestyle Script", ",", "French Script MT", ",", "Gabriola", ",", "Gadugi", ",", "Gadugi Bold", ",", "Garamond", ",", "Garamond Italic", ",", "Garamond Bold", ",", "Georgia", ",", "Georgia Italic", ",", "Georgia Bold", ",", "Georgia Bold Italic", ",", "Germany", ",", "Gigi", ",", "Gill Sans Ultra Bold", ",", "Gill Sans Condensed Ultra Bold", ",", "Gill Sans MT", ",", "Gill Sans MT Condensed", ",", "Gill Sans MT Italic", ",", "Gill Sans MT Bold", ",", "Gill Sans MT Ext Condensed Bold", ",", "Gill Sans MT Bold Italic", ",", "Gloucester MT Extra Condensed", ",", "Goudy Old Style", ",", "Goudy Old Style Italic", ",", "Goudy Old Style Bold", ",", "Goudy Stout", ",", "Haettenschweiler", ",", "Harlow Solid SemiExpanded Italic", ",", "Harrington", ",", "Helsinki", ",", "Helsinki Narrow", ",", "Helsinki Oblique", ",", "Helsinki Narrow Oblique", ",", "Helsinki Bold", ",", "Helsinki Narrow Bold", ",", "Helsinki Bold Oblique", ",", "Helsinki Narrow Bold Oblique", ",", "High Tower Text", ",", "High Tower Text Italic", ",", "HoloLens MDL2 Assets", ",", "Impact", ",", "Imprint MT Shadow", ",", "Informal Roman", ",", "Ink Free", ",", "Istanbul", ",", "Javanese Text", ",", "Jokerman", ",", "Juice ITC", ",", "Kristen ITC", ",", "Kunstler Script", ",", "Lato Thin", ",", "Lato Thin Italic", ",", "Lato Light", ",", "Lato Light Italic", ",", "Lato", ",", "Lato Italic", ",", "Lato Medium", ",", "Lato Medium Italic", ",", "Lato Semibold", ",", "Lato Semibold Italic", ",", "Lato Bold", ",", "Lato Bold Italic", ",", "Lato Heavy", ",", "Lato Heavy Italic", ",", "Lato Black", ",", "Lato Black Italic", ",", "Lato Hairline", ",", "Lato Hairline Italic", ",", "Leelawadee", ",", "Leelawadee Bold", ",", "Leelawadee UI Semilight", ",", "Leelawadee UI", ",", "Leelawadee UI Bold", ",", "Letter Gothic", ",", "Letter Gothic Oblique", ",", "Letter Gothic Bold", ",", "Lucida Bright", ",", "Lucida Bright Italic", ",", "Lucida Bright Demibold", ",", "Lucida Bright Demibold Italic", ",", "Lucida Calligraphy Italic", ",", "Lucida Console", ",", "Lucida Fax", ",", "Lucida Fax Italic", ",", "Lucida Fax Demibold", ",", "Lucida Fax Demibold Italic", ",", "Lucida Handwriting Italic", ",", "Lucida Sans", ",", "Lucida Sans Italic", ",", "Lucida Sans Demibold Roman", ",", "Lucida Sans Demibold Italic", ",", "Lucida Sans Typewriter", ",", "Lucida Sans Typewriter Oblique", ",", "Lucida Sans Typewriter Bold", ",", "Lucida Sans Typewriter Bold Oblique", ",", "Lucida Sans Unicode", ",", "Magneto Bold", ",", "Maiandra GD", ",", "Malgun Gothic Semilight", ",", "Malgun Gothic", ",", "Malgun Gothic Bold", ",", "Marlett", ",", "Matura MT Script Capitals", ",", "Microsoft Himalaya", ",", "Microsoft JhengHei Light", ",", "Microsoft JhengHei", ",", "Microsoft JhengHei Bold", ",", "Microsoft JhengHei UI Light", ",", "Microsoft JhengHei UI", ",", "Microsoft JhengHei UI Bold", ",", "Microsoft New Tai Lue", ",", "Microsoft New Tai Lue Bold", ",", "Microsoft PhagsPa", ",", "Microsoft PhagsPa Bold", ",", "Microsoft Sans Serif", ",", "Microsoft Tai Le", ",", "Microsoft Tai Le Bold", ",", "Microsoft Uighur", ",", "Microsoft Uighur Bold", ",", "Microsoft YaHei Light", ",", "Microsoft YaHei", ",", "Microsoft YaHei Bold", ",", "Microsoft YaHei UI Light", ",", "Microsoft YaHei UI", ",", "Microsoft YaHei UI Bold", ",", "Microsoft Yi Baiti", ",", "MingLiU-ExtB", ",", "MingLiU_HKSCS-ExtB", ",", "Mistral", ",", "Modern No. 20", ",", "Mongolian Baiti", ",", "Monotype Corsiva", ",", "MS Gothic", ",", "MS Outlook", ",", "MS PGothic", ",", "MS Reference Sans Serif", ",", "MS Reference Specialty", ",", "MS UI Gothic", ",", "MT Extra", ",", "MV Boli", ",", "Myanmar Text", ",", "Myanmar Text Bold", ",", "Niagara Engraved", ",", "Niagara Solid", ",", "Nirmala UI Semilight", ",", "Nirmala UI", ",", "Nirmala UI Bold", ",", "NSimSun", ",", "OCR A Extended", ",", "Old English Text MT", ",", "Onyx", ",", "Palace Script MT", ",", "Palatino Linotype", ",", "Palatino Linotype Italic", ",", "Palatino Linotype Bold", ",", "Palatino Linotype Bold Italic", ",", "Papyrus", ",", "Parchment", ",", "Perpetua", ",", "Perpetua Italic", ",", "Perpetua Bold", ",", "Perpetua Bold Italic", ",", "Perpetua Titling MT Light", ",", "Perpetua Titling MT Bold", ",", "Playbill", ",", "PMingLiU-ExtB", ",", "Poor Richard", ",", "Pristina", ",", "PT Dingbats 1", ",", "PT Dingbats 2", ",", "PT Dingbats 3", ",", "PT Dingbats 4", ",", "PT Symbol 1", ",", "PT Symbol 2", ",", "PT Utah Condensed", ",", "PT Utah Condensed Oblique", ",", "PT Utah Condensed Bold", ",", "PT Utah Condensed Bold Oblique", ",", "Rage Italic", ",", "Ravie", ",", "Rockwell", ",", "Rockwell Condensed", ",", "Rockwell Italic", ",", "Rockwell Bold", ",", "Rockwell Condensed Bold", ",", "Rockwell Bold Italic", ",", "Rockwell Extra Bold", ",", "San Diego", ",", "Script MT Bold", ",", "Segoe MDL2 Assets", ",", "Segoe Print", ",", "Segoe Print Bold", ",", "Segoe Script", ",", "Segoe Script Bold", ",", "Segoe UI Light", ",", "Segoe UI Light Italic", ",", "Segoe UI Semilight", ",", "Segoe UI Semilight Italic", ",", "Segoe UI", ",", "Segoe UI Italic", ",", "Segoe UI Semibold", ",", "Segoe UI Semibold Italic", ",", "Segoe UI Bold", ",", "Segoe UI Bold Italic", ",", "Segoe UI Black", ",", "Segoe UI Black Italic", ",", "Segoe UI Emoji", ",", "Segoe UI Historic", ",", "Segoe UI Symbol", ",", "Showcard Gothic", ",", "SimSun", ",", "SimSun-ExtB", ",", "Sitka Banner", ",", "Sitka Banner Italic", ",", "Sitka Banner Bold", ",", "Sitka Banner Bold Italic", ",", "Sitka Display", ",", "Sitka Display Italic", ",", "Sitka Display Bold", ",", "Sitka Display Bold Italic", ",", "Sitka Heading", ",", "Sitka Heading Italic", ",", "Sitka Heading Bold", ",", "Sitka Heading Bold Italic", ",", "Sitka Small", ",", "Sitka Small Italic", ",", "Sitka Small Bold", ",", "Sitka Small Bold Italic", ",", "Sitka Subheading", ",", "Sitka Subheading Italic", ",", "Sitka Subheading Bold", ",", "Sitka Subheading Bold Italic", ",", "Sitka Text", ",", "Sitka Text Italic", ",", "Sitka Text Bold", ",", "Sitka Text Bold Italic", ",", "Snap ITC", ",", "Spectral ExtraLight", ",", "Spectral ExtraLight Italic", ",", "Spectral Light", ",", "Spectral Light Italic", ",", "Spectral", ",", "Spectral Italic", ",", "Spectral Medium", ",", "Spectral Medium Italic", ",", "Spectral SemiBold", ",", "Spectral SemiBold Italic", ",", "Spectral Bold", ",", "Spectral Bold Italic", ",", "Spectral ExtraBold", ",", "Spectral ExtraBold Italic", ",", "Stencil", ",", "Sylfaen", ",", "Symbol", ",", "Tahoma", ",", "Tahoma Bold", ",", "TeamViewer15 Medium", ",", "Tempus Sans ITC", ",", "Times New Roman", ",", "Times New Roman Italic", ",", "Times New Roman Bold", ",", "Times New Roman Bold Italic", ",", "Trebuchet MS", ",", "Trebuchet MS Italic", ",", "Trebuchet MS Bold", ",", "Trebuchet MS Bold Italic", ",", "Tw Cen MT", ",", "Tw Cen MT Condensed", ",", "Tw Cen MT Italic", ",", "Tw Cen MT Bold", ",", "Tw Cen MT Condensed Bold", ",", "Tw Cen MT Bold Italic", ",", "Tw Cen MT Condensed Extra Bold", ",", "Unispace Bold", ",", "US Roman", ",", "Utah", ",", "Utah Oblique", ",", "Utah Bold", ",", "Utah Bold Oblique", ",", "Verdana", ",", "Verdana Italic", ",", "Verdana Bold", ",", "Verdana Bold Italic", ",", "Viner Hand ITC", ",", "Vivaldi Italic", ",", "Vladimir Script", ",", "Webdings", ",", "Wide Latin", ",", "Wingdings", ",", "Wingdings 2", ",", "Wingdings 3", ",", "Yu Gothic Light", ",", "Yu Gothic", ",", "Yu Gothic Medium", ",", "Yu Gothic Bold", ",", "Yu Gothic UI Light", ",", "Yu Gothic UI Semilight", ",", "Yu Gothic UI", ",", "Yu Gothic UI Semibold", ",", "Yu Gothic UI Bold", ",", "ZWAdobeF" ],
					"maxclass" : "umenu",
					"numinlets" : 1,
					"numoutlets" : 3,
					"outlettype" : [ "int", "", "" ],
					"parameter_enable" : 0,
					"patching_rect" : [ 480.5, 619.0, 147.0, 23.0 ]
				}

			}
, 			{
				"box" : 				{
					"id" : "obj-1",
					"linecount" : 6,
					"maxclass" : "newobj",
					"numinlets" : 1,
					"numoutlets" : 2,
					"outlettype" : [ "jit_matrix", "" ],
					"patching_rect" : [ 644.0, 608.0, 100.0, 91.0 ],
					"text" : "jit.gl.videoplane diagram-demo @transform_reset 2 @blend_enable 1"
				}

			}
, 			{
				"box" : 				{
					"id" : "obj-15",
					"maxclass" : "newobj",
					"numinlets" : 1,
					"numoutlets" : 2,
					"outlettype" : [ "", "" ],
					"patching_rect" : [ 644.0, 573.0, 66.0, 22.0 ],
					"text" : "jit.gl.text2d"
				}

			}
, 			{
				"box" : 				{
					"id" : "obj-9",
					"maxclass" : "newobj",
					"numinlets" : 5,
					"numoutlets" : 4,
					"outlettype" : [ "int", "", "", "int" ],
					"patching_rect" : [ 644.0, 207.5, 61.0, 22.0 ],
					"text" : "counter 2"
				}

			}
, 			{
				"box" : 				{
					"id" : "obj-8",
					"maxclass" : "newobj",
					"numinlets" : 1,
					"numoutlets" : 4,
					"outlettype" : [ "signal", "signal", "jit_matrix", "" ],
					"patching_rect" : [ 754.5, 573.0, 60.0, 22.0 ],
					"text" : "jit.movie~"
				}

			}
, 			{
				"box" : 				{
					"id" : "obj-5",
					"maxclass" : "newobj",
					"numinlets" : 1,
					"numoutlets" : 3,
					"outlettype" : [ "jit_gl_texture", "bang", "" ],
					"patching_rect" : [ 35.0, 591.0, 130.0, 22.0 ],
					"text" : "jit.world diagram-demo"
				}

			}
, 			{
				"box" : 				{
					"attr" : "enable",
					"id" : "obj-6",
					"lock" : 1,
					"maxclass" : "attrui",
					"numinlets" : 1,
					"numoutlets" : 1,
					"outlettype" : [ "" ],
					"patching_rect" : [ 35.0, 568.5, 150.0, 22.0 ]
				}

			}
, 			{
				"box" : 				{
					"attr" : "position",
					"id" : "obj-48",
					"maxclass" : "attrui",
					"numinlets" : 1,
					"numoutlets" : 1,
					"outlettype" : [ "" ],
					"patching_rect" : [ 764.5, 257.0, 377.5, 22.0 ]
				}

			}
 ],
		"lines" : [ 			{
				"patchline" : 				{
					"destination" : [ "obj-1", 0 ],
					"source" : [ "obj-15", 0 ]
				}

			}
, 			{
				"patchline" : 				{
					"destination" : [ "obj-84", 0 ],
					"source" : [ "obj-22", 0 ]
				}

			}
, 			{
				"patchline" : 				{
					"destination" : [ "obj-22", 0 ],
					"source" : [ "obj-25", 0 ]
				}

			}
, 			{
				"patchline" : 				{
					"destination" : [ "obj-15", 0 ],
					"source" : [ "obj-29", 0 ]
				}

			}
, 			{
				"patchline" : 				{
					"destination" : [ "obj-29", 0 ],
					"source" : [ "obj-32", 0 ]
				}

			}
, 			{
				"patchline" : 				{
					"destination" : [ "obj-9", 0 ],
					"source" : [ "obj-38", 0 ]
				}

			}
, 			{
				"patchline" : 				{
					"destination" : [ "obj-44", 0 ],
					"order" : 1,
					"source" : [ "obj-39", 0 ]
				}

			}
, 			{
				"patchline" : 				{
					"destination" : [ "obj-49", 0 ],
					"order" : 0,
					"source" : [ "obj-39", 0 ]
				}

			}
, 			{
				"patchline" : 				{
					"destination" : [ "obj-39", 0 ],
					"source" : [ "obj-41", 0 ]
				}

			}
, 			{
				"patchline" : 				{
					"destination" : [ "obj-15", 0 ],
					"source" : [ "obj-44", 0 ]
				}

			}
, 			{
				"patchline" : 				{
					"destination" : [ "obj-47", 0 ],
					"source" : [ "obj-44", 1 ]
				}

			}
, 			{
				"patchline" : 				{
					"destination" : [ "obj-15", 0 ],
					"source" : [ "obj-47", 0 ]
				}

			}
, 			{
				"patchline" : 				{
					"destination" : [ "obj-15", 0 ],
					"source" : [ "obj-48", 0 ]
				}

			}
, 			{
				"patchline" : 				{
					"destination" : [ "obj-55", 0 ],
					"source" : [ "obj-49", 0 ]
				}

			}
, 			{
				"patchline" : 				{
					"destination" : [ "obj-60", 0 ],
					"source" : [ "obj-52", 0 ]
				}

			}
, 			{
				"patchline" : 				{
					"destination" : [ "obj-76", 1 ],
					"source" : [ "obj-52", 2 ]
				}

			}
, 			{
				"patchline" : 				{
					"destination" : [ "obj-56", 0 ],
					"source" : [ "obj-55", 0 ]
				}

			}
, 			{
				"patchline" : 				{
					"destination" : [ "obj-52", 0 ],
					"source" : [ "obj-56", 2 ]
				}

			}
, 			{
				"patchline" : 				{
					"destination" : [ "obj-52", 0 ],
					"source" : [ "obj-56", 1 ]
				}

			}
, 			{
				"patchline" : 				{
					"destination" : [ "obj-52", 0 ],
					"source" : [ "obj-56", 0 ]
				}

			}
, 			{
				"patchline" : 				{
					"destination" : [ "obj-5", 0 ],
					"source" : [ "obj-6", 0 ]
				}

			}
, 			{
				"patchline" : 				{
					"destination" : [ "obj-76", 0 ],
					"source" : [ "obj-60", 0 ]
				}

			}
, 			{
				"patchline" : 				{
					"destination" : [ "obj-39", 0 ],
					"source" : [ "obj-73", 0 ]
				}

			}
, 			{
				"patchline" : 				{
					"destination" : [ "obj-15", 0 ],
					"source" : [ "obj-75", 0 ]
				}

			}
, 			{
				"patchline" : 				{
					"destination" : [ "obj-75", 0 ],
					"source" : [ "obj-76", 0 ]
				}

			}
, 			{
				"patchline" : 				{
					"destination" : [ "obj-83", 1 ],
					"source" : [ "obj-82", 0 ]
				}

			}
, 			{
				"patchline" : 				{
					"destination" : [ "obj-15", 0 ],
					"source" : [ "obj-83", 0 ]
				}

			}
, 			{
				"patchline" : 				{
					"destination" : [ "obj-82", 0 ],
					"source" : [ "obj-84", 1 ]
				}

			}
, 			{
				"patchline" : 				{
					"destination" : [ "obj-73", 0 ],
					"source" : [ "obj-9", 0 ]
				}

			}
 ],
		"dependency_cache" : [ 			{
				"name" : "jit.movie~.mxe64",
				"type" : "mx64"
			}
 ],
		"autosave" : 0
	}

}
